<?xml version="1.0" encoding="utf-8"?>
<!-- Generator: Adobe Illustrator 25.4.1, SVG Export Plug-In . SVG Version: 6.00 Build 0)  -->
<svg version="1.1" id="Layer_1" xmlns="http://www.w3.org/2000/svg" xmlns:xlink="http://www.w3.org/1999/xlink" x="0px" y="0px"
	 viewBox="0 0 60 60" style="enable-background:new 0 0 60 60;" xml:space="preserve">
<style type="text/css">
	.st0{fill:#330000;}
	.st1{enable-background:new    ;}
	.st2{fill:#FF9A00;}
</style>
<path id="Rectangle_46" class="st0" d="M7,0h46c3.87,0,7,3.13,7,7v46c0,3.87-3.13,7-7,7H7c-3.87,0-7-3.13-7-7V7C0,3.13,3.13,0,7,0z"
	/>
<g class="st1">
	<path class="st2" d="M36.46,42.09c0.16,0.47,0.25,0.84,0.29,1.11s-0.01,0.48-0.16,0.62c-0.14,0.14-0.4,0.22-0.76,0.25
		c-0.36,0.03-0.87,0.05-1.5,0.05c-0.66,0-1.18-0.01-1.55-0.03s-0.65-0.06-0.85-0.12s-0.33-0.14-0.41-0.24s-0.14-0.24-0.2-0.41
		l-1.7-5.08h-9.49l-1.6,4.94c-0.05,0.18-0.12,0.33-0.21,0.46c-0.08,0.12-0.22,0.22-0.41,0.29c-0.19,0.07-0.46,0.12-0.8,0.15
		c-0.35,0.03-0.8,0.04-1.36,0.04c-0.6,0-1.07-0.02-1.41-0.06c-0.34-0.04-0.57-0.13-0.7-0.28c-0.13-0.15-0.18-0.36-0.14-0.63
		s0.14-0.64,0.29-1.09l7.79-22.42c0.08-0.22,0.17-0.4,0.27-0.54c0.1-0.14,0.27-0.24,0.5-0.31c0.23-0.07,0.54-0.12,0.95-0.14
		c0.4-0.02,0.94-0.03,1.6-0.03c0.77,0,1.38,0.01,1.84,0.03c0.46,0.02,0.81,0.07,1.06,0.14s0.44,0.18,0.55,0.32
		c0.11,0.14,0.21,0.34,0.28,0.59L36.46,42.09z M24.86,23.55h-0.02l-3.57,10.74h7.17L24.86,23.55z"/>
	<path class="st2" d="M44.99,20.02c0,0.99-0.2,1.67-0.61,2.05c-0.4,0.38-1.15,0.57-2.25,0.57c-1.11,0-1.85-0.18-2.24-0.55
		c-0.38-0.36-0.58-1.02-0.58-1.97c0-0.99,0.2-1.68,0.6-2.06c0.4-0.38,1.15-0.58,2.26-0.58c1.09,0,1.84,0.19,2.23,0.56
		S44.99,19.07,44.99,20.02z M44.62,43.34c0,0.13-0.04,0.24-0.12,0.34s-0.21,0.18-0.4,0.24c-0.19,0.07-0.44,0.11-0.75,0.15
		s-0.71,0.05-1.19,0.05c-0.48,0-0.88-0.02-1.19-0.05s-0.56-0.08-0.75-0.15c-0.19-0.07-0.32-0.15-0.4-0.24s-0.12-0.21-0.12-0.34
		V25.95c0-0.13,0.04-0.24,0.12-0.34s0.21-0.18,0.4-0.25c0.19-0.07,0.44-0.13,0.75-0.17s0.71-0.06,1.19-0.06
		c0.48,0,0.88,0.02,1.19,0.06s0.56,0.09,0.75,0.17c0.19,0.07,0.32,0.16,0.4,0.25s0.12,0.21,0.12,0.34V43.34z"/>
</g>
</svg>
