<?xml version="1.0" encoding="utf-8"?>
<!-- Generator: Adobe Illustrator 25.4.1, SVG Export Plug-In . SVG Version: 6.00 Build 0)  -->
<svg version="1.1" id="Layer_1" xmlns="http://www.w3.org/2000/svg" xmlns:xlink="http://www.w3.org/1999/xlink" x="0px" y="0px"
	 viewBox="0 0 60 60" style="enable-background:new 0 0 60 60;" xml:space="preserve">
<style type="text/css">
	.st0{fill:#49021F;}
	.st1{enable-background:new    ;}
	.st2{fill:#FF3366;}
</style>
<path id="Rectangle_46" class="st0" d="M7,0h46c3.87,0,7,3.13,7,7v46c0,3.87-3.13,7-7,7H7c-3.87,0-7-3.13-7-7V7C0,3.13,3.13,0,7,0z"
	/>
<g class="st1">
	<path class="st2" d="M22.12,42c0,0.12-0.04,0.24-0.12,0.33c-0.08,0.1-0.21,0.18-0.4,0.24c-0.19,0.06-0.43,0.11-0.74,0.15
		c-0.31,0.04-0.71,0.06-1.19,0.06c-0.47,0-0.86-0.02-1.18-0.06s-0.57-0.09-0.75-0.15c-0.19-0.06-0.32-0.14-0.4-0.24
		c-0.08-0.1-0.12-0.21-0.12-0.33V19.33c0-0.12,0.04-0.23,0.12-0.33c0.08-0.1,0.22-0.18,0.41-0.24c0.19-0.06,0.44-0.11,0.75-0.15
		c0.31-0.04,0.7-0.06,1.17-0.06c0.48,0,0.88,0.02,1.19,0.06c0.31,0.04,0.56,0.09,0.74,0.15c0.19,0.06,0.32,0.14,0.4,0.24
		c0.08,0.1,0.12,0.21,0.12,0.33V42z"/>
	<path class="st2" d="M42.77,42.04c0,0.14-0.03,0.25-0.09,0.34c-0.06,0.09-0.17,0.17-0.32,0.23s-0.35,0.1-0.6,0.13
		c-0.25,0.02-0.57,0.04-0.94,0.04c-0.4,0-0.72-0.01-0.96-0.04c-0.25-0.03-0.45-0.07-0.6-0.13c-0.15-0.06-0.27-0.14-0.33-0.23
		c-0.07-0.09-0.1-0.21-0.1-0.34v-1.84c-0.85,0.92-1.75,1.63-2.68,2.13c-0.93,0.51-1.97,0.76-3.11,0.76c-1.26,0-2.33-0.24-3.2-0.73
		c-0.87-0.49-1.58-1.15-2.13-1.98c-0.55-0.83-0.95-1.8-1.2-2.9c-0.25-1.11-0.37-2.27-0.37-3.5c0-1.47,0.16-2.79,0.47-3.97
		c0.32-1.17,0.78-2.18,1.38-3.01c0.61-0.83,1.36-1.47,2.26-1.91c0.9-0.45,1.94-0.67,3.12-0.67c0.93,0,1.77,0.19,2.52,0.57
		c0.75,0.38,1.5,0.93,2.25,1.66V17.7c0-0.12,0.03-0.23,0.1-0.33c0.07-0.1,0.19-0.18,0.37-0.25c0.18-0.07,0.42-0.12,0.71-0.16
		S40,16.9,40.46,16.9c0.46,0,0.83,0.02,1.13,0.06s0.53,0.09,0.71,0.16c0.17,0.07,0.3,0.15,0.37,0.25c0.07,0.1,0.11,0.21,0.11,0.33
		V42.04z M38.14,30.98c-0.67-0.84-1.31-1.48-1.92-1.93s-1.25-0.67-1.92-0.67c-0.61,0-1.13,0.15-1.57,0.46
		c-0.44,0.3-0.79,0.71-1.06,1.21c-0.27,0.51-0.46,1.07-0.59,1.7c-0.13,0.62-0.19,1.27-0.19,1.92c0,0.69,0.06,1.37,0.17,2.02
		c0.11,0.66,0.29,1.24,0.55,1.75c0.25,0.51,0.59,0.92,1.01,1.23c0.42,0.31,0.95,0.46,1.6,0.46c0.32,0,0.63-0.05,0.94-0.14
		c0.3-0.09,0.61-0.24,0.93-0.46c0.32-0.21,0.64-0.49,0.97-0.83c0.33-0.34,0.7-0.76,1.09-1.25V30.98z"/>
</g>
</svg>
