<?xml version="1.0" encoding="utf-8"?>
<!-- Generator: Adobe Illustrator 25.4.1, SVG Export Plug-In . SVG Version: 6.00 Build 0)  -->
<svg version="1.1" id="Layer_1" xmlns="http://www.w3.org/2000/svg" xmlns:xlink="http://www.w3.org/1999/xlink" x="0px" y="0px"
	 viewBox="0 0 67 67" style="enable-background:new 0 0 67 67;" xml:space="preserve">
<style type="text/css">
	.st0{fill:none;}
	.st1{fill:none;stroke:#FFFFFF;stroke-width:2;}
	.st2{fill:#FFFFFF;}
</style>
<g id="Rectangle_42">
	<rect class="st0" width="67" height="67"/>
	<rect x="1" y="1" class="st1" width="65" height="65"/>
</g>
<g id="Group_8" transform="translate(-1710.4 -2778.5)">
	<g id="Rectangle_40" transform="translate(1726.4 2798.5)">
		<g>
			<path class="st0" d="M2,0h31c1.66,0,3,1.34,3,3v21c0,1.66-1.34,3-3,3H2c-1.66,0-3-1.34-3-3V3C-1,1.34,0.34,0,2,0z"/>
		</g>
		<g>
			<path class="st2" d="M33,27H2c-1.65,0-3-1.35-3-3V3c0-1.65,1.35-3,3-3h31c1.65,0,3,1.35,3,3v21C36,25.65,34.65,27,33,27z M2,2
				C1.45,2,1,2.45,1,3v21c0,0.55,0.45,1,1,1h31c0.55,0,1-0.45,1-1V3c0-0.55-0.45-1-1-1H2z"/>
		</g>
	</g>
	<g id="Path_59">
		<path class="st2" d="M1743.96,2816.46c-1.03,0-2.05-0.43-2.77-1.27l-14.94-14.99l1.42-1.41l14.99,15.04
			c0.34,0.39,0.73,0.59,1.17,0.62c0.43,0.03,0.86-0.1,1.19-0.39c0.07-0.06,0.12-0.12,0.18-0.18c2.23-2.15,15.2-15.03,15.33-15.16
			l1.41,1.42c-0.13,0.13-13.12,13.02-15.29,15.11c-0.06,0.07-0.19,0.21-0.33,0.33C1745.64,2816.18,1744.8,2816.46,1743.96,2816.46z"
			/>
	</g>
	<g id="Path_60">
		
			<rect x="1723.31" y="2816.36" transform="matrix(0.7071 -0.7071 0.7071 0.7071 -1484.855 2049.9539)" class="st2" width="17.55" height="2"/>
	</g>
	<g id="Path_61">
		
			<rect x="1754.21" y="2808.59" transform="matrix(0.7081 -0.7061 0.7061 0.7081 -1476.9973 2061.6594)" class="st2" width="2" height="17.53"/>
	</g>
</g>
</svg>
