<?xml version="1.0" encoding="utf-8"?>
<!-- Generator: Adobe Illustrator 25.4.1, SVG Export Plug-In . SVG Version: 6.00 Build 0)  -->
<svg version="1.1" id="Layer_1" xmlns="http://www.w3.org/2000/svg" xmlns:xlink="http://www.w3.org/1999/xlink" x="0px" y="0px"
	 viewBox="0 0 159.93 69.04" style="enable-background:new 0 0 159.93 69.04;" xml:space="preserve">
<style type="text/css">
	.st0{fill:#FFFFFF;}
</style>
<g>
	<path class="st0" d="M24.08,31.01c-1.95,2.05-4.54,3.07-7.78,3.07c-3.24,0-5.82-1.02-7.76-3.07c-1.94-2.05-2.91-4.57-2.91-7.55
		c0-2.98,0.97-5.49,2.91-7.53c1.94-2.04,4.52-3.05,7.76-3.05c3.23,0,5.83,1.02,7.78,3.05c1.95,2.04,2.93,4.54,2.93,7.53
		C27.01,26.44,26.03,28.96,24.08,31.01z M12.53,27.66c0.92,1.13,2.17,1.69,3.76,1.69c1.59,0,2.85-0.56,3.79-1.69
		c0.93-1.13,1.4-2.53,1.4-4.2c0-1.65-0.47-3.03-1.4-4.16c-0.93-1.13-2.2-1.69-3.79-1.69c-1.59,0-2.84,0.56-3.76,1.69
		s-1.38,2.52-1.38,4.16C11.15,25.13,11.61,26.53,12.53,27.66z"/>
	<path class="st0" d="M34.96,33.58h-5.31V5.68h5.31V33.58z"/>
	<path class="st0" d="M57.82,33.58H52.5v-12.3c0-1.34-0.32-2.29-0.96-2.84c-0.64-0.56-1.58-0.84-2.8-0.84c-1.87,0-3.4,0.79-4.6,2.38
		v13.59h-5.31V5.68h5.31v10.33c0.73-0.86,1.71-1.6,2.95-2.22c1.24-0.61,2.63-0.92,4.16-0.92c2.17,0,3.81,0.56,4.92,1.67
		c1.1,1.12,1.65,2.68,1.65,4.68V33.58z"/>
	<path class="st0" d="M79.15,33.58h-5.31v-2.09c-1.45,1.73-3.58,2.59-6.4,2.59c-1.81,0-3.44-0.59-4.87-1.78
		c-1.44-1.18-2.15-2.82-2.15-4.91c0-2.17,0.7-3.81,2.11-4.89s3.05-1.63,4.92-1.63c2.87,0,5,0.82,6.4,2.47v-2.72
		c0-1.03-0.4-1.85-1.21-2.47s-1.88-0.92-3.22-0.92c-2.2,0-4.17,0.79-5.9,2.38l-2.01-3.56c2.4-2.12,5.34-3.18,8.83-3.18
		c2.59,0,4.71,0.6,6.36,1.8c1.64,1.2,2.47,3.15,2.47,5.86V33.58z M69.57,30.48c1.98,0,3.4-0.59,4.27-1.76v-2.51
		c-0.86-1.17-2.29-1.76-4.27-1.76c-1.09,0-1.99,0.27-2.72,0.82c-0.73,0.54-1.09,1.29-1.09,2.24c0,0.92,0.36,1.65,1.09,2.17
		C67.58,30.22,68.49,30.48,69.57,30.48z"/>
	<path class="st0" d="M25.92,64.73h-5.31v-12.3c0-1.34-0.32-2.29-0.96-2.84c-0.64-0.56-1.58-0.84-2.8-0.84
		c-1.87,0-3.4,0.79-4.6,2.38v13.59H6.93v-27.9h5.31v10.33c0.73-0.86,1.71-1.6,2.95-2.22c1.24-0.61,2.63-0.92,4.16-0.92
		c2.17,0,3.81,0.56,4.92,1.67c1.1,1.12,1.65,2.68,1.65,4.68V64.73z"/>
	<path class="st0" d="M47.03,62.16c-1.95,2.05-4.54,3.07-7.78,3.07c-3.24,0-5.82-1.02-7.76-3.07c-1.94-2.05-2.91-4.57-2.91-7.55
		c0-2.98,0.97-5.49,2.91-7.53c1.94-2.04,4.52-3.05,7.76-3.05c3.23,0,5.83,1.02,7.78,3.05c1.95,2.04,2.93,4.54,2.93,7.53
		C49.96,57.59,48.98,60.11,47.03,62.16z M35.49,58.81c0.92,1.13,2.17,1.69,3.76,1.69c1.59,0,2.85-0.56,3.79-1.69
		c0.93-1.13,1.4-2.53,1.4-4.2c0-1.65-0.47-3.03-1.4-4.16c-0.93-1.13-2.2-1.69-3.79-1.69c-1.59,0-2.84,0.56-3.76,1.69
		s-1.38,2.52-1.38,4.16C34.11,56.28,34.57,57.68,35.49,58.81z"/>
	<path class="st0" d="M57.92,64.73h-5.31v-27.9h5.31V64.73z"/>
	<path class="st0" d="M79.1,62.16c-1.95,2.05-4.54,3.07-7.78,3.07c-3.24,0-5.82-1.02-7.76-3.07c-1.94-2.05-2.91-4.57-2.91-7.55
		c0-2.98,0.97-5.49,2.91-7.53c1.94-2.04,4.52-3.05,7.76-3.05c3.23,0,5.83,1.02,7.78,3.05c1.95,2.04,2.93,4.54,2.93,7.53
		C82.03,57.59,81.05,60.11,79.1,62.16z M67.56,58.81c0.92,1.13,2.17,1.69,3.76,1.69c1.59,0,2.85-0.56,3.79-1.69
		c0.93-1.13,1.4-2.53,1.4-4.2c0-1.65-0.47-3.03-1.4-4.16c-0.93-1.13-2.2-1.69-3.79-1.69c-1.59,0-2.84,0.56-3.76,1.69
		s-1.38,2.52-1.38,4.16C66.18,56.28,66.64,57.68,67.56,58.81z"/>
	<path class="st0" d="M95.1,64.73h-5.73l-8.11-20.2h5.69l5.27,14.05l5.27-14.05h5.73L95.1,64.73z"/>
	<path class="st0" d="M107.19,42.36c-0.86,0-1.61-0.31-2.24-0.94s-0.94-1.37-0.94-2.24s0.31-1.6,0.94-2.22s1.37-0.92,2.24-0.92
		c0.89,0,1.65,0.31,2.26,0.92s0.92,1.35,0.92,2.22s-0.31,1.61-0.92,2.24S108.08,42.36,107.19,42.36z M109.87,64.73h-5.31v-20.2h5.31
		V64.73z"/>
	<path class="st0" d="M132.7,64.73h-5.31V52.52c0-2.51-1.24-3.76-3.72-3.76c-1.92,0-3.46,0.79-4.6,2.38v13.59h-5.31v-20.2h5.31v2.63
		c1.76-2.09,4.11-3.14,7.07-3.14c2.18,0,3.81,0.57,4.92,1.71c1.1,1.14,1.65,2.72,1.65,4.73V64.73z"/>
	<path class="st0" d="M154.06,64.73h-5.31v-2.09c-1.45,1.73-3.58,2.59-6.4,2.59c-1.81,0-3.44-0.59-4.87-1.78
		c-1.44-1.18-2.15-2.82-2.15-4.91c0-2.17,0.7-3.81,2.11-4.89s3.05-1.63,4.92-1.63c2.87,0,5,0.82,6.4,2.47v-2.72
		c0-1.03-0.4-1.85-1.21-2.47s-1.88-0.92-3.22-0.92c-2.2,0-4.17,0.79-5.9,2.38l-2.01-3.56c2.4-2.12,5.34-3.18,8.83-3.18
		c2.59,0,4.71,0.6,6.36,1.8c1.64,1.2,2.47,3.15,2.47,5.86V64.73z M144.48,61.64c1.98,0,3.4-0.59,4.27-1.76v-2.51
		c-0.86-1.17-2.29-1.76-4.27-1.76c-1.09,0-1.99,0.27-2.72,0.82c-0.73,0.54-1.09,1.29-1.09,2.24c0,0.92,0.36,1.65,1.09,2.17
		C142.49,61.37,143.39,61.64,144.48,61.64z"/>
</g>
</svg>
