<?xml version="1.0" encoding="utf-8"?>
<!-- Generator: Adobe Illustrator 25.4.1, SVG Export Plug-In . SVG Version: 6.00 Build 0)  -->
<svg version="1.1" id="Layer_1" xmlns="http://www.w3.org/2000/svg" xmlns:xlink="http://www.w3.org/1999/xlink" x="0px" y="0px"
	 viewBox="0 0 60 60" style="enable-background:new 0 0 60 60;" xml:space="preserve">
<style type="text/css">
	.st0{fill:#001E36;}
	.st1{enable-background:new    ;}
	.st2{fill:#30A2F8;}
</style>
<path id="Rectangle_46" class="st0" d="M7,0h46c3.87,0,7,3.13,7,7v46c0,3.87-3.13,7-7,7H7c-3.87,0-7-3.13-7-7V7C0,3.13,3.13,0,7,0z"
	/>
<g class="st1">
	<path class="st2" d="M31.06,25.88c0,1.42-0.22,2.68-0.66,3.77c-0.44,1.09-1.09,2.01-1.93,2.76c-0.85,0.75-1.88,1.32-3.12,1.71
		s-2.68,0.59-4.35,0.59h-2.11v8.07c0,0.13-0.04,0.25-0.13,0.35c-0.08,0.1-0.22,0.19-0.42,0.25s-0.46,0.12-0.78,0.16
		c-0.33,0.04-0.74,0.06-1.25,0.06c-0.5,0-0.91-0.02-1.24-0.06s-0.6-0.09-0.79-0.16s-0.33-0.15-0.41-0.25s-0.12-0.22-0.12-0.35V20.04
		c0-0.61,0.16-1.07,0.48-1.38c0.32-0.31,0.74-0.46,1.26-0.46h5.96c0.6,0,1.17,0.02,1.71,0.07c0.54,0.05,1.19,0.14,1.94,0.29
		c0.75,0.15,1.52,0.43,2.29,0.83c0.77,0.4,1.44,0.92,1.98,1.53s0.96,1.34,1.25,2.17C30.92,23.92,31.06,24.85,31.06,25.88z
		 M25.69,26.25c0-0.89-0.16-1.61-0.47-2.19s-0.7-1-1.15-1.27c-0.46-0.27-0.93-0.45-1.44-0.52c-0.5-0.07-1.02-0.11-1.55-0.11h-2.19
		v8.57h2.3c0.82,0,1.51-0.11,2.06-0.33c0.55-0.22,1.01-0.53,1.36-0.93s0.62-0.87,0.8-1.43C25.6,27.5,25.69,26.9,25.69,26.25z"/>
	<path class="st2" d="M46.59,37.89c0,0.99-0.19,1.86-0.56,2.62s-0.9,1.39-1.57,1.89c-0.68,0.51-1.48,0.89-2.4,1.14
		c-0.92,0.25-1.93,0.38-3.01,0.38c-0.65,0-1.27-0.05-1.87-0.15c-0.59-0.1-1.12-0.22-1.59-0.37s-0.86-0.3-1.17-0.46
		s-0.54-0.3-0.68-0.44c-0.14-0.14-0.25-0.35-0.33-0.64s-0.12-0.73-0.12-1.3c0-0.38,0.01-0.68,0.04-0.91
		c0.03-0.23,0.06-0.41,0.12-0.55c0.05-0.14,0.12-0.23,0.2-0.27s0.18-0.07,0.29-0.07c0.14,0,0.35,0.08,0.63,0.24
		c0.28,0.16,0.63,0.34,1.04,0.54c0.42,0.2,0.9,0.38,1.46,0.55c0.55,0.17,1.18,0.25,1.88,0.25c0.44,0,0.84-0.05,1.18-0.14
		c0.34-0.09,0.64-0.22,0.9-0.39s0.45-0.38,0.58-0.64c0.13-0.26,0.2-0.56,0.2-0.9c0-0.39-0.12-0.73-0.36-1.01
		c-0.24-0.28-0.56-0.52-0.96-0.73c-0.4-0.21-0.85-0.4-1.35-0.59c-0.5-0.18-1.02-0.38-1.54-0.61s-1.04-0.48-1.54-0.76
		c-0.5-0.29-0.95-0.64-1.35-1.05c-0.4-0.42-0.72-0.92-0.96-1.5c-0.24-0.59-0.36-1.29-0.36-2.11c0-0.83,0.16-1.6,0.49-2.29
		c0.33-0.7,0.79-1.29,1.41-1.79c0.61-0.5,1.36-0.88,2.24-1.15s1.87-0.41,2.96-0.41c0.55,0,1.08,0.04,1.59,0.12
		c0.51,0.08,0.98,0.18,1.4,0.29c0.42,0.12,0.77,0.24,1.05,0.38c0.29,0.14,0.49,0.25,0.62,0.35c0.12,0.1,0.21,0.2,0.26,0.29
		c0.05,0.1,0.09,0.21,0.12,0.35c0.03,0.14,0.05,0.31,0.07,0.51s0.03,0.45,0.03,0.75c0,0.35-0.01,0.64-0.03,0.86s-0.05,0.4-0.1,0.53
		c-0.05,0.13-0.11,0.22-0.19,0.26s-0.17,0.07-0.27,0.07c-0.12,0-0.3-0.07-0.55-0.21c-0.25-0.14-0.56-0.28-0.93-0.44
		s-0.8-0.3-1.29-0.44s-1.04-0.21-1.67-0.21c-0.44,0-0.83,0.05-1.15,0.14c-0.33,0.09-0.59,0.22-0.8,0.39
		c-0.21,0.17-0.36,0.37-0.47,0.6c-0.1,0.23-0.16,0.47-0.16,0.73c0,0.4,0.12,0.74,0.37,1.02c0.25,0.27,0.57,0.51,0.98,0.72
		c0.4,0.21,0.86,0.4,1.38,0.59c0.51,0.18,1.04,0.38,1.56,0.6s1.05,0.47,1.56,0.75c0.51,0.29,0.97,0.64,1.38,1.05
		c0.4,0.42,0.73,0.92,0.98,1.49C46.46,36.41,46.59,37.1,46.59,37.89z"/>
</g>
</svg>
