<?xml version="1.0" encoding="utf-8"?>
<!-- Generator: Adobe Illustrator 25.4.1, SVG Export Plug-In . SVG Version: 6.00 Build 0)  -->
<svg version="1.1" id="Layer_1" xmlns="http://www.w3.org/2000/svg" xmlns:xlink="http://www.w3.org/1999/xlink" x="0px" y="0px"
	 viewBox="0 0 67 67" style="enable-background:new 0 0 67 67;" xml:space="preserve">
<style type="text/css">
	.st0{fill:none;}
	.st1{fill:none;stroke:#FFFFFF;stroke-width:2;}
	.st2{enable-background:new    ;}
	.st3{fill:#FFFFFF;}
</style>
<g id="Social_In">
	<g id="Rectangle_42">
		<rect class="st0" width="67" height="67"/>
		<rect x="1" y="1" class="st1" width="65" height="65"/>
	</g>
	<g class="st2">
		<path class="st3" d="M18.96,21.39c-0.67-0.62-1-1.38-1-2.29c0-0.91,0.33-1.68,1-2.29c0.67-0.62,1.53-0.92,2.59-0.92
			s1.92,0.3,2.59,0.89c0.67,0.59,1,1.33,1,2.22c0,0.96-0.33,1.76-1,2.39c-0.67,0.63-1.53,0.94-2.59,0.94S19.63,22.01,18.96,21.39z
			 M18.66,25.09h5.77V45h-5.77V25.09z"/>
		<path class="st3" d="M47.5,27.02c1.52,1.48,2.28,3.68,2.28,6.59V45h-5.77V34.49c0-1.58-0.35-2.76-1.04-3.53
			c-0.69-0.78-1.69-1.17-3-1.17c-1.46,0-2.61,0.45-3.48,1.35c-0.86,0.9-1.29,2.24-1.29,4.01V45h-5.77V25.09h5.51v2.33
			c0.76-0.84,1.71-1.49,2.85-1.94c1.13-0.46,2.38-0.68,3.74-0.68C44,24.8,45.99,25.54,47.5,27.02z"/>
	</g>
</g>
</svg>
