<?xml version="1.0" standalone="no"?>
<!DOCTYPE svg PUBLIC "-//W3C//DTD SVG 20010904//EN"
 "http://www.w3.org/TR/2001/REC-SVG-20010904/DTD/svg10.dtd">
<svg version="1.0" xmlns="http://www.w3.org/2000/svg"
 width="260.000000pt" height="260.000000pt" viewBox="0 0 260.000000 260.000000"
 preserveAspectRatio="xMidYMid meet">
<metadata>
Created by potrace 1.14, written by Peter Selinger 2001-2017
</metadata>
<g transform="translate(0.000000,260.000000) scale(0.100000,-0.100000)"
fill="#000000" stroke="none">
<path d="M0 1300 l0 -1300 1300 0 1300 0 0 1300 0 1300 -1300 0 -1300 0 0
-1300z m1466 879 c147 -26 305 -99 407 -189 l47 -42 0 111 0 111 33 0 32 0 -3
-144 -3 -144 34 -48 c51 -72 104 -182 129 -271 20 -68 23 -101 23 -253 0 -201
-15 -272 -86 -414 -114 -225 -298 -374 -550 -443 -101 -28 -358 -25 -464 5
-289 82 -501 293 -591 587 -26 83 -28 104 -28 260 -1 148 2 180 22 248 29 100
72 194 122 268 l40 59 0 145 0 145 30 0 30 0 0 -111 0 -111 49 41 c108 91 249
160 381 186 80 16 266 19 346 4z m-776 -1671 l0 -78 -30 0 -30 0 0 113 1 112
29 -35 c27 -32 29 -41 30 -112z m1293 35 l-2 -108 -30 -3 -31 -3 0 76 c0 68 3
80 28 111 15 18 29 34 32 34 3 0 4 -48 3 -107z"/>
<path d="M1185 2120 c-157 -24 -317 -100 -432 -205 l-63 -57 0 -264 0 -264
615 0 615 0 0 263 0 263 -47 45 c-109 104 -235 173 -373 204 -91 20 -234 27
-315 15z"/>
<path d="M588 1689 c-66 -136 -83 -213 -82 -384 1 -133 4 -160 27 -238 15 -48
42 -116 60 -150 l32 -62 3 227 c1 126 1 330 0 455 l-3 228 -37 -76z"/>
<path d="M1980 1310 c0 -247 2 -450 5 -450 11 0 77 145 97 217 19 66 23 102
23 233 0 131 -4 167 -23 233 -20 72 -86 217 -97 217 -3 0 -5 -202 -5 -450z"/>
<path d="M694 1261 c-2 -2 -4 -115 -4 -251 l0 -247 53 -50 c100 -95 225 -163
362 -199 101 -27 312 -25 416 4 129 35 275 119 362 209 l37 39 -2 247 -3 247
-608 3 c-335 1 -611 0 -613 -2z"/>
</g>
</svg>
